<?xml version="1.0" encoding="utf-8"?>
<!-- Generator: Adobe Illustrator 17.0.0, SVG Export Plug-In . SVG Version: 6.00 Build 0)  -->
<!DOCTYPE svg PUBLIC "-//W3C//DTD SVG 1.1//EN" "http://www.w3.org/Graphics/SVG/1.1/DTD/svg11.dtd">
<svg version="1.1" id="Layer_1" xmlns="http://www.w3.org/2000/svg" xmlns:xlink="http://www.w3.org/1999/xlink" x="0px" y="0px"
	 width="256px" height="256px" viewBox="0 0 256 256" enable-background="new 0 0 256 256" xml:space="preserve">
<path fill="#F1F1F1" d="M182.757,19.943l-0.009,211.483c0,7.966,6.455,14.429,14.429,14.429c7.97,0,14.426-6.463,14.426-14.429
	l-7.991-85.646c0-3.772,1.44-7.205,3.812-9.78c2.479-2.688,4.159-6.182,4.159-10.135V66.518c0,0,1.308-56.167-19.24-56.167
	C187.049,10.351,182.757,14.65,182.757,19.943z"/>
<path fill="#F1F1F1" d="M157.101,82.54l-6.372-70.619c-0.113-1.072-1.016-1.912-2.12-1.912c-1.181,0-2.132,0.954-2.132,2.137
	l0.529,66.007c0,1.624-1.317,2.939-2.939,2.939c-1.621,0-2.938-1.315-2.938-2.939l-1.069-66.007c0-1.183-0.961-2.137-2.142-2.137
	c-1.179,0-2.134,0.954-2.134,2.137v66.007c0,1.624-1.317,2.939-2.939,2.939c-1.624,0-2.938-1.315-2.938-2.939V12.146
	c0-1.183-0.956-2.137-2.142-2.137c-1.179,0-2.132,0.954-2.132,2.137l-1.07,66.007c0,1.624-1.315,2.939-2.939,2.939
	c-1.621,0-2.938-1.315-2.938-2.939l0.529-66.007c0-1.183-0.958-2.137-2.141-2.137c-1.1,0-2.004,0.84-2.118,1.912l-6.367,70.619
	c-0.137,1.042-0.208,2.113-0.208,3.199c0,4.769,1.373,9.221,3.737,12.985l0.002,0.009l9.488,15.167
	c2.041,3.549,3.201,7.662,3.201,12.051l-6.398,105.611c0,7.968,6.458,14.429,14.431,14.429c7.966,0,14.429-6.461,14.429-14.429
	l-6.414-105.611c0-4.389,1.181-8.502,3.215-12.051l9.492-15.167v-0.009c2.361-3.765,3.737-8.216,3.737-12.985
	C157.303,84.651,157.224,83.582,157.101,82.54z"/>
<path fill="#F1F1F1" d="M73.754,16.445c-3.781-3.811-9.021-6.168-14.809-6.168c-5.79,0-11.026,2.359-14.809,6.168
	C33.883,26.821,27.548,41.075,27.548,56.81c0,9.323,1.452,18.562,6.164,25.904c2.296,3.586,4.089,5.565,6.498,8.421
	c6.731,7.991,11.025,19.52,10.2,32.649l-5.895,107.665c0,7.979,6.463,14.438,14.431,14.438l0,0c7.973,0,14.433-6.458,14.433-14.438
	l-5.895-107.663c-0.828-13.129,3.466-24.658,10.202-32.65c2.408-2.855,4.199-4.834,6.495-8.42
	c4.712-7.341,6.164-16.581,6.164-25.903C90.345,41.075,84.008,26.821,73.754,16.445z"/>
</svg>
